<svg width="700" height="442" viewBox="0 0 700 442" fill="none" xmlns="http://www.w3.org/2000/svg">
<rect width="148.866" height="506.229" transform="matrix(0.86601 0.500028 3.18351e-05 1 324.836 0.00195312)" fill="#6E6E6E"/>
<rect width="140.672" height="506.229" transform="matrix(0.86601 -0.500028 -3.18351e-05 1 203.015 70.3398)" fill="#5A5A5A"/>
<rect width="148.866" height="506.229" transform="matrix(0.86601 0.500028 3.18351e-05 1 203.013 70.334)" fill="#C3D2CC"/>
<rect width="140.672" height="506.229" transform="matrix(0.86601 -0.500028 -3.18351e-05 1 331.934 144.77)" fill="#648A7C"/>
<rect width="140.672" height="148.866" transform="matrix(0.866041 -0.499972 0.866041 0.499972 203.013 70.3379)" fill="#346654"/>
<rect width="218.422" height="386.586" transform="matrix(0.86601 0.500028 3.18351e-05 1 510.756 150.004)" fill="#6E6E6E"/>
<rect width="206.398" height="386.586" transform="matrix(0.86601 -0.500028 -3.18351e-05 1 332.013 253.205)" fill="#5A5A5A"/>
<rect width="218.422" height="386.586" transform="matrix(0.86601 0.500028 3.18351e-05 1 332.011 253.197)" fill="#C3D2CC"/>
<rect width="206.398" height="386.586" transform="matrix(0.86601 -0.500028 -3.18351e-05 1 521.17 362.411)" fill="#648A7C"/>
<rect width="206.398" height="218.422" transform="matrix(0.866041 -0.499972 0.866041 0.499972 332.011 253.203)" fill="#346654"/>
<rect width="148.866" height="290.229" transform="matrix(0.86601 0.500028 3.18351e-05 1 122.83 213.002)" fill="#6E6E6E"/>
<rect width="140.672" height="290.229" transform="matrix(0.86601 -0.500028 -3.18351e-05 1 1.00684 283.34)" fill="#5A5A5A"/>
<rect width="148.866" height="290.229" transform="matrix(0.86601 0.500028 3.18351e-05 1 1.00586 283.334)" fill="#C3D2CC"/>
<rect width="140.672" height="290.229" transform="matrix(0.86601 -0.500028 -3.18351e-05 1 129.929 357.77)" fill="#648A7C"/>
<rect width="140.672" height="148.866" transform="matrix(0.866041 -0.499972 0.866041 0.499972 1.00586 283.338)" fill="#346654"/>
</svg>
