<svg width="37" height="36" viewBox="0 0 37 36" fill="none" xmlns="http://www.w3.org/2000/svg">
<rect x="0.5" width="36" height="36" rx="18" fill="white"/>
<path d="M18.5003 23.8334C21.722 23.8334 24.3337 21.2217 24.3337 18.0001C24.3337 14.7784 21.722 12.1667 18.5003 12.1667C15.2787 12.1667 12.667 14.7784 12.667 18.0001C12.667 21.2217 15.2787 23.8334 18.5003 23.8334Z" fill="#060709"/>
<path d="M18.4997 27.1333C18.0413 27.1333 17.6663 26.7916 17.6663 26.3333V26.2666C17.6663 25.8083 18.0413 25.4333 18.4997 25.4333C18.958 25.4333 19.333 25.8083 19.333 26.2666C19.333 26.7249 18.958 27.1333 18.4997 27.1333ZM24.4497 24.7833C24.233 24.7833 24.0247 24.6999 23.858 24.5416L23.7497 24.4333C23.4247 24.1083 23.4247 23.5833 23.7497 23.2583C24.0747 22.9333 24.5997 22.9333 24.9247 23.2583L25.033 23.3666C25.358 23.6916 25.358 24.2166 25.033 24.5416C24.8747 24.6999 24.6663 24.7833 24.4497 24.7833ZM12.5497 24.7833C12.333 24.7833 12.1247 24.6999 11.958 24.5416C11.633 24.2166 11.633 23.6916 11.958 23.3666L12.0663 23.2583C12.3913 22.9333 12.9163 22.9333 13.2413 23.2583C13.5663 23.5833 13.5663 24.1083 13.2413 24.4333L13.133 24.5416C12.9747 24.6999 12.758 24.7833 12.5497 24.7833ZM26.833 18.8333H26.7663C26.308 18.8333 25.933 18.4583 25.933 17.9999C25.933 17.5416 26.308 17.1666 26.7663 17.1666C27.2247 17.1666 27.633 17.5416 27.633 17.9999C27.633 18.4583 27.2913 18.8333 26.833 18.8333ZM10.233 18.8333H10.1663C9.70801 18.8333 9.33301 18.4583 9.33301 17.9999C9.33301 17.5416 9.70801 17.1666 10.1663 17.1666C10.6247 17.1666 11.033 17.5416 11.033 17.9999C11.033 18.4583 10.6913 18.8333 10.233 18.8333ZM24.3413 12.9916C24.1247 12.9916 23.9163 12.9083 23.7497 12.7499C23.4247 12.4249 23.4247 11.8999 23.7497 11.5749L23.858 11.4666C24.183 11.1416 24.708 11.1416 25.033 11.4666C25.358 11.7916 25.358 12.3166 25.033 12.6416L24.9247 12.7499C24.7663 12.9083 24.558 12.9916 24.3413 12.9916ZM12.658 12.9916C12.4413 12.9916 12.233 12.9083 12.0663 12.7499L11.958 12.6333C11.633 12.3083 11.633 11.7833 11.958 11.4583C12.283 11.1333 12.808 11.1333 13.133 11.4583L13.2413 11.5666C13.5663 11.8916 13.5663 12.4166 13.2413 12.7416C13.083 12.9083 12.8663 12.9916 12.658 12.9916ZM18.4997 10.5333C18.0413 10.5333 17.6663 10.1916 17.6663 9.73325V9.66659C17.6663 9.20825 18.0413 8.83325 18.4997 8.83325C18.958 8.83325 19.333 9.20825 19.333 9.66659C19.333 10.1249 18.958 10.5333 18.4997 10.5333Z" fill="#060709"/>
</svg>
